<svg width="20" height="20" viewBox="0 0 20 20" fill="none" xmlns="http://www.w3.org/2000/svg">
<path d="M9.9888 19.8677C9.75566 19.8677 9.5403 19.7445 9.42175 19.5439L8.44022 17.8836C6.41571 14.4609 4.50337 11.2281 3.85356 9.92382C3.39562 8.98488 3.16467 7.98053 3.16467 6.9338C3.16489 3.17104 6.22603 0.109894 9.9888 0.109894C13.7518 0.109894 16.8129 3.17104 16.8129 6.9338C16.8129 7.97965 16.5822 8.98401 16.1271 9.91855C16.1225 9.92777 16.1179 9.93677 16.1133 9.94577C15.4532 11.2641 13.5509 14.48 11.5376 17.8838L10.5558 19.5441C10.4375 19.7445 10.2219 19.8677 9.9888 19.8677ZM9.9888 1.42708C6.95224 1.42708 4.48208 3.89747 4.48208 6.9338C4.48208 7.77856 4.66802 8.58885 5.03486 9.34184C5.66096 10.5978 7.64925 13.9592 9.57191 17.2096L9.9888 17.9148L10.4037 17.2131C12.3275 13.9612 14.3164 10.5984 14.9452 9.33657C14.9478 9.33174 14.9502 9.32669 14.9528 9.32186C15.3133 8.57414 15.496 7.77088 15.496 6.93402C15.4957 3.89747 13.0254 1.42708 9.9888 1.42708Z" fill="#29292C"/>
<path d="M9.9888 9.90033C8.21586 9.90033 6.77354 8.45801 6.77354 6.68507C6.77354 4.91214 8.21586 3.47004 9.9888 3.47004C11.7615 3.47004 13.2041 4.91236 13.2041 6.68529C13.2041 8.45823 11.7615 9.90033 9.9888 9.90033ZM9.9888 4.78723C8.94229 4.78723 8.09073 5.63857 8.09073 6.68529C8.09073 7.73202 8.94207 8.58336 9.9888 8.58336C11.0355 8.58336 11.8869 7.73202 11.8869 6.68529C11.8869 5.63857 11.0355 4.78723 9.9888 4.78723Z" fill="#29292C"/>
</svg>
