<svg width="16" height="14" viewBox="0 0 16 14" fill="none" xmlns="http://www.w3.org/2000/svg">
<path d="M14.0993 0C13.715 0 13.2831 0.0890188 12.7779 0.271077C11.9935 0.553717 2.7672 4.47111 1.71755 4.9167C1.11743 5.17181 0 5.64634 0 6.77803C0 7.52817 0.439562 8.06471 1.3049 8.37376C1.77016 8.53952 2.87518 8.87446 3.51632 9.0509C3.78828 9.12564 4.0773 9.16394 4.37455 9.16394C4.95612 9.16394 5.5414 9.01903 5.99991 8.76336C5.99598 8.85776 5.99855 8.95318 6.00979 9.04871C6.0789 9.63871 6.44272 10.1936 6.98216 10.5336C7.33503 10.7561 10.2173 12.6873 10.6477 12.9941C11.2523 13.4262 11.9207 13.6548 12.5793 13.6548C13.838 13.6548 14.2603 12.3552 14.4637 11.7309C14.7587 10.8246 15.8633 3.45404 15.9881 2.15435C16.0729 1.26372 15.7017 0.530328 14.9948 0.192059C14.7302 0.0645056 14.428 0 14.0993 0ZM14.0993 1.12382C14.2538 1.12382 14.3918 1.14938 14.5087 1.20613C14.7744 1.33368 14.9097 1.61803 14.8686 2.04789C14.7327 3.46559 13.6307 10.6616 13.3958 11.383C13.1947 12 12.9827 12.531 12.5793 12.531C12.1758 12.531 11.7351 12.3896 11.3007 12.0788C10.8664 11.7687 7.98202 9.83438 7.58138 9.58208C7.23019 9.36069 6.8585 8.8088 7.38164 8.27498C7.81262 7.83557 11.0818 4.6626 11.3611 4.38333C11.569 4.17486 11.4718 3.92348 11.2678 3.92348C11.1976 3.92348 11.1135 3.95309 11.0264 4.02445C10.6847 4.30372 5.92178 7.49087 5.50934 7.7471C5.23625 7.91679 4.8134 8.03903 4.37455 8.03903C4.18743 8.03903 3.99799 8.0166 3.81593 7.96659C3.1821 7.79184 2.10946 7.46641 1.68353 7.31469C1.2739 7.1686 1.12492 7.02864 1.12492 6.77803C1.12492 6.42178 1.62776 6.17585 2.15764 5.95053C2.7173 5.71284 12.4013 1.60047 13.1588 1.32795C13.5094 1.20096 13.8301 1.12382 14.0993 1.12382Z" fill="#29292C"/>
</svg>
